Simulation
nRows=48
nColumns=15
endheader
time  TH_x TH_y TH_z SC_y  SC_z  SC_x  AC_y  AC_z  AC_x  GH_y  GH_z  GH_yy  EL_x  PS_y
0.0  0.000000  0.000000  0.000000  -36.55726823707446  0.10046703151592566  -1.3317494318881267  46.330101658499885  3.8749380432948386  0.385276618360213  31.622479134248568  9.180910445140988  -23.682443811236478  65.4583295227194  120.000000
0.01  0.000000  0.000000  0.000000  -36.367262059251566  -0.05438692923587685  -2.007043259620278  46.24894689376754  4.448554278258183  0.7202302156545934  32.21839963513482  9.555968358910837  -24.246964289849043  65.49123486632871  120.000000
0.02  0.000000  0.000000  0.000000  -36.201832308712234  -0.16237943047843467  -2.6742574250971947  46.16763169416106  4.990934653730272  1.059479397466163  32.86508976851597  9.922716839253503  -24.855203720670975  65.55352758602683  120.000000
0.03  0.000000  0.000000  0.000000  -36.05727386251958  -0.23096645079364259  -3.327316188122895  46.07943312004447  5.498605457907838  1.3993895057520027  33.50308976933399  10.277888959282501  -25.444215400405565  65.65907250723221  120.000000
0.04  0.000000  0.000000  0.000000  -35.93177421062701  -0.2649911868948607  -3.96192343394984  45.97835665406008  5.969006940840743  1.7395351321834942  34.10045008317859  10.617083397765198  -25.98234792167473  65.82235411402993  120.000000
0.05  0.000000  0.000000  0.000000  -35.82275922630849  -0.27080553712443634  -4.575466834286505  45.86204974952344  6.402176672201732  2.0778522710183696  34.62982499397088  10.938391862037747  -26.44386820933894  66.05729697621601  120.000000
0.06  0.000000  0.000000  0.000000  -35.728218784885904  -0.25331250062695665  -5.166115669504144  45.73092072896566  6.799660091179173  2.4120038016927228  35.0788829059264  11.240692331823007  -26.819707239694335  66.3742720094795  120.000000
0.07  0.000000  0.000000  0.000000  -35.64710289322229  -0.21672515765569686  -5.732921689570938  45.58736493690007  7.163484218466313  2.739220237834622  35.440026818675435  11.52503392652085  -27.10618411067255  66.78131300885045  120.000000
0.08  0.000000  0.000000  0.000000  -35.57786316279163  -0.16416653770414727  -6.274954490887448  45.4352078372614  7.496720602172452  3.0564844865255636  35.71251605347507  11.792434781802363  -27.306625219336997  67.28239985840914  120.000000
0.09  0.000000  0.000000  0.000000  -35.51805043433112  -0.09850587830849988  -6.791315887350837  45.27858822945519  7.802349944484563  3.360631209347905  35.89544599614224  12.0445799923379  -27.42386874539145  67.87854040654658  120.000000
0.1  0.000000  0.000000  0.000000  -35.46551583697664  -0.022857576510833692  -7.280861862199331  45.12140559942745  8.083800283680006  3.648948950512002  35.99108970125202  12.282816991896546  -27.463631137801777  68.56750256028057  120.000000
0.11  0.000000  0.000000  0.000000  -35.418309381416165  0.05964223971231755  -7.742946722512197  44.966783247931104  8.344244148968043  3.9196570700613425  36.00190130448666  12.508975940870112  -27.43159615593203  69.34512482082796  120.000000
0.12  0.000000  0.000000  0.000000  -35.3750225449114  0.14627190223967837  -8.176981986095534  44.81721173303154  8.587039261149915  4.171880589730045  35.933619699377886  12.724512766280577  -27.33638567035192  70.20547085556512  120.000000
0.13  0.000000  0.000000  0.000000  -35.334897122256386  0.2341739337538848  -8.582734723448366  44.674497587089995  8.815174498557882  4.405417367148535  35.79141754574232  12.931465066838745  -27.185616076311838  71.14177213342472  120.000000
0.14  0.000000  0.000000  0.000000  -35.29767308651036  0.3211793984644367  -8.960119860200928  44.53988100528443  9.031600169411572  4.620950445180797  35.58300514029332  13.131481336747461  -26.989007204248544  72.14653412397465  120.000000
0.15  0.000000  0.000000  0.000000  -35.26326683742052  0.4060150511281625  -9.309396096140159  44.414188166249225  9.238612045424622  4.819863136968101  35.316484509815076  13.32655606908555  -26.7561390985513  73.21214553141668  120.000000
0.16  0.000000  0.000000  0.000000  -35.23197545769883  0.4882585228087198  -9.630972411135387  44.29806804776477  9.438439589231372  5.00410490514944  35.0015354007812  13.518448434509168  -26.497541032909346  74.33091148456657  120.000000
0.17  0.000000  0.000000  0.000000  -35.204297428368825  0.5680980975762202  -9.925454248065405  44.19198500171604  9.632813086078952  5.175882867475063  34.647715394030506  13.709249234104439  -26.22311604104492  75.49528474077447  120.000000
0.18  0.000000  0.000000  0.000000  -35.18099393866709  0.645755329882539  -10.193343016388793  44.096221441188796  9.823457322020234  5.337514383925301  34.264736430668435  13.900905728459604  -25.94253455494779  76.69764634339661  120.000000
0.19  0.000000  0.000000  0.000000  -35.16293520232742  0.7213343725310364  -10.435125354552687  44.01083939179805  10.011862884472459  5.491256807242036  33.86162644227416  14.09555897451113  -25.66452132523915  77.93047920683787  120.000000
0.2  0.000000  0.000000  0.000000  -35.15137002510537  0.795133920928435  -10.651197061020149  43.93604224397056  10.19935867035202  5.639360846321517  33.44743766385084  14.295382057924021  -25.397416779103892  79.18634741277452  120.000000
0.21  0.000000  0.000000  0.000000  -35.14770015492969  0.8677728242237587  -10.841991252419902  43.87205666428154  10.386927312757539  5.784154816603213  33.031399060663865  14.502590281138708  -25.14944339997301  80.45810081120803  120.000000
0.22  0.000000  0.000000  0.000000  -35.153557475297134  0.9400673137586582  -11.007882048990737  43.8192719680232  10.575269160159683  5.928099631674776  32.62314535911312  14.71928765981872  -24.928960355816937  81.73871348240361  120.000000
0.23  0.000000  0.000000  0.000000  -35.170578536140155  1.0130181748290072  -11.149262672801392  43.77814848081551  10.764752050575517  6.073731347372142  32.23243966907614  14.947509275974879  -24.74426151571923  83.02136394430103  120.000000
0.24  0.000000  0.000000  0.000000  -35.200227495706216  1.087752596997251  -11.266546043686857  43.7493186047837  10.955739227953348  6.223473760804497  31.868700837473284  15.189087529787965  -24.603175785282467  84.29924276005966  120.000000
0.25  0.000000  0.000000  0.000000  -35.24355304545083  1.1653849783492358  -11.360304703743022  43.733493677538206  11.148694112102069  6.3794801928423555  31.540372167094244  15.44576423321836  -24.5124982628884  85.56555693741912  120.000000
0.26  0.000000  0.000000  0.000000  -35.30111964858238  1.247112689808699  -11.431317309698729  43.7315265240872  11.344194007288582  6.543695990788181  31.25529226282146  15.71907729169397  -24.478545691248584  86.81341930726317  120.000000
0.27  0.000000  0.000000  0.000000  -35.37332558801062  1.334221134615509  -11.480691936487572  43.744242942551736  11.542812679903761  6.717908318053153  31.02089971781227  16.010595794443972  -24.507613471253133  88.03604215331211  120.000000
0.28  0.000000  0.000000  0.000000  -35.46102132395085  1.4277660470947915  -11.509747823264183  43.77230875701131  11.745289531482566  6.903689135919791  30.843940315417186  16.32207650239494  -24.605841599983606  89.22680500936241  120.000000
0.29  0.000000  0.000000  0.000000  -35.56510133537327  1.5284221637521374  -11.52010406002259  43.8161698378145  11.952553547495492  7.102224247115048  30.72991915818776  16.655522541444334  -24.778814936687375  90.37924397475453  120.000000
0.3  0.000000  0.000000  0.000000  -35.685919025857004  1.6366217003616441  -11.513765350282776  43.87614400327883  12.16576595630137  7.314261016340067  30.68302740842573  17.01293703547301  -25.03142276064659  91.48702288806757  120.000000
0.31  0.000000  0.000000  0.000000  -35.823113994315534  1.7525779358495837  -11.493244176713485  43.952327752733424  12.386217870561744  7.54015376331521  30.705986442619288  17.3963580920541  -25.367523559087598  92.5441196869359  120.000000
0.32  0.000000  0.000000  0.000000  -35.975628437625154  1.8763961577770507  -11.461576915299394  44.04447730182477  12.615260634935316  7.780014712762785  30.80012341169117  17.807698309277917  -25.789914331501173  93.54508116613415  120.000000
0.33  0.000000  0.000000  0.000000  -36.14174249526289  2.0082900252750413  -11.422387214318316  44.151916591102186  12.854106263361313  8.03398315879513  30.965737435149897  18.248798300657807  -26.300528389018947  94.48513646772996  120.000000
0.34  0.000000  0.000000  0.000000  -36.319808380277756  2.1484933376507143  -11.377693461618968  44.27419414650316  13.103362103894996  8.301483712285027  31.202723061461544  18.720666289562434  -26.900590982191833  95.3593907668397  120.000000
0.35000000000000003  0.000000  0.000000  0.000000  -36.508588410495804  2.296701832802808  -11.32586217791396  44.411228068397165  13.362460887095859  8.580317468883354  31.50793418844834  19.222821655239308  -27.587533882553988  96.16336549783092  120.000000
0.36  0.000000  0.000000  0.000000  -36.70700373302448  2.4518898583099142  -11.263650835071203  44.56275605207939  13.630411575963091  8.867467632557721  31.875570000494587  19.75407495223683  -28.35572622823561  96.89331388995585  120.000000
0.37  0.000000  0.000000  0.000000  -36.913814039635064  2.612624781173338  -11.188337949619488  44.72802766059951  13.906274034385108  9.160040375780781  32.299039810255614  20.3133897308414  -29.19875144303935  97.54586166811032  120.000000
0.38  0.000000  0.000000  0.000000  -37.12754597248817  2.777394696549832  -11.097723361612099  44.905998755176036  14.18906401317151  9.455301799063559  32.77134963538587  20.899759920487945  -30.10973089366258  98.11802282192662  120.000000
0.39  0.000000  0.000000  0.000000  -37.34657177687585  2.94481053568688  -10.990107212711473  45.09553893087685  14.4777905690829  9.750593172255536  33.28567291685431  21.512281225560166  -31.081757366172713  98.60698702258418  120.000000
0.4  0.000000  0.000000  0.000000  -37.569168210373476  3.113673594646868  -10.864202367356553  45.29544037001709  14.77142927297878  10.04340786918903  33.83527848328983  22.15003571811629  -32.107815710857345  99.01012664987266  120.000000
0.41000000000000003  0.000000  0.000000  0.000000  -37.793644550041286  3.282977622405363  -10.719075329916645  45.504397142335186  15.068903682490225  10.331418327817765  34.41370464292475  22.81211849018262  -33.18092439063174  99.32492373815836  120.000000
0.42  0.000000  0.000000  0.000000  -38.018420633885945  3.4518996300376887  -10.554053378110297  45.72104366182779  15.369089295022038  10.612537255874761  35.01472399994367  23.497551306672154  -34.294069174245735  99.54899873288673  120.000000
0.43  0.000000  0.000000  0.000000  -38.242088765807345  3.619776941538911  -10.368681174900214  45.94395123593121  15.670801868459808  10.884926188531587  35.63244124955959  24.20530319013026  -35.44026833907247  99.68014889731293  120.000000
0.44  0.000000  0.000000  0.000000  -38.46346445710626  3.7860842260719116  -10.162649463176876  46.17168360668961  15.97281137217666  11.147022217108471  36.26128278399387  24.93421920790405  -36.61257815034325  99.7164363995382  120.000000
0.45  0.000000  0.000000  0.000000  -38.681588718036544  3.950414303803774  -9.935778675319204  46.40280717205049  16.27383660854517  11.397510465096254  36.896048361039156  25.683042531531306  -37.80416017311483  99.65631530370557  120.000000
0.46  0.000000  0.000000  0.000000  -38.89573803825457  4.1124747453295605  -9.68798033616704  46.635977225696394  16.57257551371095  11.635302421395918  37.53192709879977  26.450365465753542  -39.008360260254854  99.49874452769569  120.000000
0.47000000000000003  0.000000  0.000000  0.000000  -39.105371318801424  4.272077083164514  -9.419269028945132  46.869950830810424  16.86771255816375  11.859473806409783  38.16448887214725  27.234660855341783  -40.218753847987244  99.24336674164793  120.000000
